<?xml version="1.0" encoding="utf-8"?>
<!-- Generator: Adobe Illustrator 22.0.1, SVG Export Plug-In . SVG Version: 6.00 Build 0)  -->
<svg version="1.1" id="Capa_1" xmlns="http://www.w3.org/2000/svg" xmlns:xlink="http://www.w3.org/1999/xlink" x="0px" y="0px"
	 viewBox="0 0 122.2 122" style="enable-background:new 0 0 122.2 122;" xml:space="preserve">
<style type="text/css">
	.st0{fill:url(#SVGID_1_);}
	.st1{fill:url(#SVGID_2_);}
	.st2{fill:url(#SVGID_3_);}
	.st3{fill:url(#SVGID_4_);}
	.st4{fill:url(#SVGID_5_);}
</style>
<title>logoRecurso 1</title>
<linearGradient id="SVGID_1_" gradientUnits="userSpaceOnUse" x1="5.7896" y1="63.3571" x2="46.5091" y2="63.3571" gradientTransform="matrix(1 0 0 -1 0 124.8)">
	<stop  offset="0" style="stop-color:#2E285B"/>
	<stop  offset="0.34" style="stop-color:#322E69"/>
	<stop  offset="0.99" style="stop-color:#3E3D8C"/>
	<stop  offset="1" style="stop-color:#3E3D8D"/>
</linearGradient>
<path class="st0" d="M5.8,44.7c0,0,0,11.3,6,13.2c8.3,2.4,16.4,5.7,24.1,9.7c4.3,2.2,7.6,6,9.3,10.6c0.2,0.6,4.3-7.8-3-16
	S13.1,45.6,5.8,44.7z"/>
<linearGradient id="SVGID_2_" gradientUnits="userSpaceOnUse" x1="1.2923" y1="79.4913" x2="46.619" y2="79.4913" gradientTransform="matrix(1 0 0 -1 0 124.8)">
	<stop  offset="0" style="stop-color:#2E285B"/>
	<stop  offset="0.34" style="stop-color:#322E69"/>
	<stop  offset="0.99" style="stop-color:#3E3D8C"/>
	<stop  offset="1" style="stop-color:#3E3D8D"/>
</linearGradient>
<path class="st1" d="M29.7,37.4C21,31,1.3,26,1.3,26C1,38.6,6.9,40.2,6.9,40.2s8.5,2.8,22.2,8.3s17.4,16.1,17.4,16.1
	C46.2,50.2,38.8,43.9,29.7,37.4z"/>
<linearGradient id="SVGID_3_" gradientUnits="userSpaceOnUse" x1="50.656" y1="34.8976" x2="68.4526" y2="34.8976" gradientTransform="matrix(1 0 0 -1 0 124.8)">
	<stop  offset="0" style="stop-color:#2E0557"/>
	<stop  offset="1" style="stop-color:#4D316D"/>
</linearGradient>
<path class="st2" d="M50.7,88.6c0.2,6.5,7.8,12.3,7.8,12.3c-2.7-5.7,9.9-22,9.9-22C59.6,79.9,50.7,88.6,50.7,88.6z"/>
<linearGradient id="SVGID_4_" gradientUnits="userSpaceOnUse" x1="50.5557" y1="60.9477" x2="111.7678" y2="60.9477" gradientTransform="matrix(1 0 0 -1 0 124.8)">
	<stop  offset="0" style="stop-color:#2E0557"/>
	<stop  offset="1" style="stop-color:#4D316D"/>
</linearGradient>
<path class="st3" d="M58.9,61.2c-11.6,9.5-7.9,21.7-7.5,20.9c3.2-5.8,8.5-10.2,14.8-12.3c11.2-3.7,22.8-6.4,34.6-7.8
	c8.4-1.3,10.9-16.5,10.9-16.5C101.7,45.3,70.6,51.8,58.9,61.2z"/>
<linearGradient id="SVGID_5_" gradientUnits="userSpaceOnUse" x1="50.5708" y1="82.6535" x2="119.9672" y2="82.6535" gradientTransform="matrix(1 0 0 -1 0 124.8)">
	<stop  offset="0" style="stop-color:#2E0557"/>
	<stop  offset="1" style="stop-color:#4D316D"/>
</linearGradient>
<path class="st4" d="M79.3,30.2c-13.6,6.8-25.1,13.6-28.7,33c0,0,7.3-13.4,27-17.9s31.7-6.3,31.7-6.3s8.4-0.9,10.7-17.9
	C120,21.1,92.4,23.5,79.3,30.2z"/>
</svg>
