<svg xmlns="http://www.w3.org/2000/svg" xmlns:xlink="http://www.w3.org/1999/xlink" viewBox="0 0 179.56 85.17"><defs><style>.cls-1{fill:none;}.cls-2{fill:#282828;}.cls-3{fill:url(#Degradado_sin_nombre_143);}.cls-4{fill:url(#Degradado_sin_nombre_143-2);}.cls-5{fill:url(#Degradado_sin_nombre_6);}.cls-6{fill:url(#Degradado_sin_nombre_6-2);}.cls-7{fill:url(#Degradado_sin_nombre_6-3);}</style><linearGradient id="Degradado_sin_nombre_143" x1="59.63" y1="23.66" x2="83.52" y2="23.66" gradientUnits="userSpaceOnUse"><stop offset="0" stop-color="#2e285b"/><stop offset="0.34" stop-color="#322e69"/><stop offset="0.99" stop-color="#3e3d8c"/><stop offset="1" stop-color="#3e3d8d"/></linearGradient><linearGradient id="Degradado_sin_nombre_143-2" x1="56.99" y1="14.19" x2="83.58" y2="14.19" xlink:href="#Degradado_sin_nombre_143"/><linearGradient id="Degradado_sin_nombre_6" x1="85.95" y1="40.36" x2="96.39" y2="40.36" gradientUnits="userSpaceOnUse"><stop offset="0" stop-color="#2e0557"/><stop offset="1" stop-color="#4d316d"/></linearGradient><linearGradient id="Degradado_sin_nombre_6-2" x1="85.89" y1="25.06" x2="121.8" y2="25.06" xlink:href="#Degradado_sin_nombre_6"/><linearGradient id="Degradado_sin_nombre_6-3" x1="85.9" y1="12.34" x2="126.61" y2="12.34" xlink:href="#Degradado_sin_nombre_6"/></defs><title>logoRecurso 1</title><g id="Capa_2" data-name="Capa 2"><g id="Capa_1-2" data-name="Capa 1"><path class="cls-1" d="M115.94,66.59a4.61,4.61,0,0,0-1.52-1.09,4.73,4.73,0,0,0-1.91-.39,5,5,0,0,0-2,.39,4.94,4.94,0,0,0-1.6,1.09,5.31,5.31,0,0,0-1.07,1.62,5.05,5.05,0,0,0-.39,2,4.93,4.93,0,0,0,.39,2,5.17,5.17,0,0,0,1.07,1.59,5,5,0,0,0,1.6,1.07,4.83,4.83,0,0,0,2,.4,4.57,4.57,0,0,0,1.91-.4,4.7,4.7,0,0,0,1.52-1.07,5.17,5.17,0,0,0,1-1.59,5.29,5.29,0,0,0,.36-2,5.42,5.42,0,0,0-.36-2A5.32,5.32,0,0,0,115.94,66.59Z"/><path class="cls-1" d="M61,66.59a4.61,4.61,0,0,0-1.52-1.09,4.73,4.73,0,0,0-1.91-.39,5,5,0,0,0-2,.39A4.94,4.94,0,0,0,54,66.59a5.34,5.34,0,0,0-1.07,1.6,5.12,5.12,0,0,0,0,3.92A5.39,5.39,0,0,0,54,73.72a4.91,4.91,0,0,0,1.6,1.08,4.83,4.83,0,0,0,2,.4A4.67,4.67,0,0,0,61,73.72a5.4,5.4,0,0,0,1-1.61,5.52,5.52,0,0,0,0-3.92A5.35,5.35,0,0,0,61,66.59Z"/><path class="cls-1" d="M156.66,66.59a5,5,0,0,0-1.6-1.09,5.2,5.2,0,0,0-3.95,0,4.9,4.9,0,0,0-1.59,1.09,5.14,5.14,0,0,0-1.07,1.62,4.89,4.89,0,0,0-.4,2,4.77,4.77,0,0,0,.4,2,5,5,0,0,0,2.66,2.66,5.08,5.08,0,0,0,3.95,0,5.16,5.16,0,0,0,1.6-1.07,4.89,4.89,0,0,0,1.48-3.55,5,5,0,0,0-1.48-3.59Z"/><path class="cls-2" d="M18.76,62.65a1.68,1.68,0,0,0-1.12-.42,1.54,1.54,0,0,0-1.55,1.16l-2.48,8-2.42-8a1.52,1.52,0,0,0-.58-.85,1.73,1.73,0,0,0-1-.28,1.8,1.8,0,0,0-1,.28,1.48,1.48,0,0,0-.59.85l-2.45,8-2.45-8a1.58,1.58,0,0,0-.57-.86,1.53,1.53,0,0,0-1-.3,1.69,1.69,0,0,0-1.12.44A1.46,1.46,0,0,0,0,63.84a2,2,0,0,0,0,.32,2,2,0,0,0,.08.35L4.06,77a1.4,1.4,0,0,0,.59.83,1.74,1.74,0,0,0,1,.27,1.79,1.79,0,0,0,1-.27A1.43,1.43,0,0,0,7.19,77l2.45-7.89L12.06,77a1.43,1.43,0,0,0,.61.83,1.79,1.79,0,0,0,1.89,0,1.38,1.38,0,0,0,.6-.83l4-12.51a2.22,2.22,0,0,0,.11-.65A1.49,1.49,0,0,0,18.76,62.65Z"/><path class="cls-2" d="M24.52,56a1.61,1.61,0,0,0-1.14.44,1.53,1.53,0,0,0-.47,1.17v2.25A1.53,1.53,0,0,0,23.38,61a1.57,1.57,0,0,0,1.14.44,1.52,1.52,0,0,0,1.64-1.61V57.61a1.58,1.58,0,0,0-.44-1.17A1.62,1.62,0,0,0,24.52,56Z"/><path class="cls-2" d="M24.52,62.8a1.58,1.58,0,0,0-1.14.45,1.53,1.53,0,0,0-.47,1.15V76.47a1.56,1.56,0,0,0,.47,1.19,1.61,1.61,0,0,0,2.78-1.19V64.4a1.53,1.53,0,0,0-1.64-1.6Z"/><path class="cls-2" d="M43.12,63.92A6.31,6.31,0,0,0,41,62.41a6.86,6.86,0,0,0-2.76-.54,5.94,5.94,0,0,0-2.4.47,5.41,5.41,0,0,0-1.8,1.3,1.52,1.52,0,0,0-1.64-1.41,1.39,1.39,0,0,0-1,.38,1.36,1.36,0,0,0-.41,1V76.49a1.53,1.53,0,0,0,.47,1.19,1.64,1.64,0,0,0,1.14.42,1.69,1.69,0,0,0,1.2-.42,1.58,1.58,0,0,0,.43-1.19V69a4.41,4.41,0,0,1,.27-1.56,3.66,3.66,0,0,1,.77-1.24,3.88,3.88,0,0,1,1.22-.83,3.73,3.73,0,0,1,1.55-.31,3.56,3.56,0,0,1,1.52.31,3.45,3.45,0,0,1,1.14.84,3.91,3.91,0,0,1,.72,1.26A4.55,4.55,0,0,1,41.71,69v7.47a1.55,1.55,0,0,0,.45,1.19,1.64,1.64,0,0,0,1.16.42,1.61,1.61,0,0,0,1.17-.42,1.58,1.58,0,0,0,.44-1.19V69a8.44,8.44,0,0,0-.47-2.83A6.69,6.69,0,0,0,43.12,63.92Z"/><path class="cls-2" d="M64.23,62.23a1.63,1.63,0,0,0-1.29.45,2.18,2.18,0,0,0-.45,1.38,7,7,0,0,0-.94-.81,7,7,0,0,0-1.16-.71A7.57,7.57,0,0,0,59,62.05a6.06,6.06,0,0,0-1.48-.18,7.8,7.8,0,0,0-3.11.64,8.64,8.64,0,0,0-2.65,1.78A8.87,8.87,0,0,0,50,66.92a7.91,7.91,0,0,0,0,6.46A8.87,8.87,0,0,0,51.79,76a8.3,8.3,0,0,0,2.65,1.78,7.81,7.81,0,0,0,3.11.65,7.18,7.18,0,0,0,2.85-.52,4.82,4.82,0,0,0,1.92-1.48,9,9,0,0,1-.24,2.12,4.28,4.28,0,0,1-.84,1.74,4.1,4.1,0,0,1-1.57,1.17,6.13,6.13,0,0,1-2.46.43A1.7,1.7,0,0,0,56,84.74a1.77,1.77,0,0,0,1.31.43,9.11,9.11,0,0,0,3.76-.7,7.53,7.53,0,0,0,2.58-1.87A7.38,7.38,0,0,0,65.15,80a10.08,10.08,0,0,0,.46-3V63.64a1.32,1.32,0,0,0-1.38-1.41ZM62,72.11a5.4,5.4,0,0,1-1,1.61,4.67,4.67,0,0,1-3.43,1.48,4.83,4.83,0,0,1-2-.4A4.91,4.91,0,0,1,54,73.72a5.39,5.39,0,0,1-1.07-1.61,5.12,5.12,0,0,1,0-3.92A5.34,5.34,0,0,1,54,66.59a4.94,4.94,0,0,1,1.6-1.09,5,5,0,0,1,2-.39,4.73,4.73,0,0,1,1.91.39A4.61,4.61,0,0,1,61,66.59a5.18,5.18,0,0,1,1.36,3.56A5.29,5.29,0,0,1,62,72.11Z"/><path class="cls-2" d="M77.87,69.93A6.41,6.41,0,0,0,76.62,69a14.46,14.46,0,0,0-1.82-.84,3.25,3.25,0,0,1-1.25-.72,1.4,1.4,0,0,1-.27-.92,1.3,1.3,0,0,1,.35-1,1.14,1.14,0,0,1,.81-.34,1.65,1.65,0,0,1,1.38.62,1,1,0,0,0,.49.35,1.6,1.6,0,0,0,.61.13A1.31,1.31,0,0,0,78,65.88a1.55,1.55,0,0,0,.35-1A2,2,0,0,0,78,63.64a3,3,0,0,0-1.46-1.1,5.51,5.51,0,0,0-2-.36,4.8,4.8,0,0,0-1.8.32,4.24,4.24,0,0,0-1.42.92,4,4,0,0,0-.95,1.42,5,5,0,0,0-.33,1.85,4,4,0,0,0,.56,2.25,4.4,4.4,0,0,0,1.55,1.44,8.09,8.09,0,0,0,1.51.67,5.06,5.06,0,0,1,1.42.74,2,2,0,0,1,.52.55,1.72,1.72,0,0,1,.21.94,1.43,1.43,0,0,1-1.63,1.52,3,3,0,0,1-1.07-.17,4.63,4.63,0,0,1-.9-.42,2.09,2.09,0,0,0-1.08-.34,1.27,1.27,0,0,0-1,.5,1.61,1.61,0,0,0-.4,1,1.54,1.54,0,0,0,.26.9,3,3,0,0,0,.67.71,5.41,5.41,0,0,0,1.59.83,5.79,5.79,0,0,0,1.93.32,4.78,4.78,0,0,0,2-.4,5,5,0,0,0,1.53-1.08,4.7,4.7,0,0,0,1.31-3.25,6.3,6.3,0,0,0-.29-2A3.57,3.57,0,0,0,77.87,69.93Z"/><path class="cls-2" d="M88.47,74.94a4,4,0,0,1-.73-.11,1.94,1.94,0,0,1-.62-.28,1.24,1.24,0,0,1-.44-.54,2.22,2.22,0,0,1-.15-.9v-7.5h1a1.52,1.52,0,0,0,1.17-.46,1.77,1.77,0,0,0,0-2.34,1.58,1.58,0,0,0-1.17-.44h-1V57.64a1.66,1.66,0,0,0-2.78-1.2,1.56,1.56,0,0,0-.46,1.2V62.4a1.36,1.36,0,0,0-1,.49A1.73,1.73,0,0,0,81.93,64a1.67,1.67,0,0,0,.36,1.07,1.39,1.39,0,0,0,1,.53v7.53a6.31,6.31,0,0,0,.35,2.24,4,4,0,0,0,1,1.55,4.07,4.07,0,0,0,1.48.89,5.77,5.77,0,0,0,1.84.28,2.14,2.14,0,0,0,1.41-.41,1.36,1.36,0,0,0,.47-1.08,1.78,1.78,0,0,0-.35-1.17A1.39,1.39,0,0,0,88.47,74.94Z"/><path class="cls-2" d="M101.87,62.56a1.75,1.75,0,0,0-1.17-.38,5.83,5.83,0,0,0-2.22.39,5,5,0,0,0-1.78,1.3,2.25,2.25,0,0,0-.39-1.2,1.26,1.26,0,0,0-1-.44,1.41,1.41,0,0,0-1.25.52A2.17,2.17,0,0,0,93.66,64V76.58a1.44,1.44,0,0,0,.45,1.08,1.62,1.62,0,0,0,1.18.44,1.58,1.58,0,0,0,1.17-.44,1.44,1.44,0,0,0,.44-1V69.19a6.08,6.08,0,0,1,.17-1.53,2.67,2.67,0,0,1,.62-1.19,3.09,3.09,0,0,1,1.24-.77,7.6,7.6,0,0,1,2-.37,1.49,1.49,0,0,0,1.07-.46,1.71,1.71,0,0,0,.34-1.09A1.48,1.48,0,0,0,101.87,62.56Z"/><path class="cls-2" d="M118.94,62.23a1.61,1.61,0,0,0-1.14.44,1.53,1.53,0,0,0-.47,1.17,5.93,5.93,0,0,0-2-1.44,6.81,6.81,0,0,0-2.79-.53,8.16,8.16,0,0,0-3.29.66,8.27,8.27,0,0,0-2.64,1.79A8.07,8.07,0,0,0,104.85,67a8.72,8.72,0,0,0,0,6.46A7.9,7.9,0,0,0,106.57,76a8,8,0,0,0,2.62,1.76,8.4,8.4,0,0,0,3.32.65,6.18,6.18,0,0,0,1.41-.17,7.28,7.28,0,0,0,1.34-.45,6.86,6.86,0,0,0,1.16-.66,9.19,9.19,0,0,0,.91-.78v.09a1.56,1.56,0,0,0,.47,1.19,1.61,1.61,0,0,0,1.14.44,1.64,1.64,0,0,0,1.2-.44,1.61,1.61,0,0,0,.43-1.19V63.84a1.58,1.58,0,0,0-.43-1.17A1.64,1.64,0,0,0,118.94,62.23Zm-2,9.91a5.17,5.17,0,0,1-1,1.59,4.7,4.7,0,0,1-1.52,1.07,4.57,4.57,0,0,1-1.91.4,4.83,4.83,0,0,1-2-.4,5,5,0,0,1-1.6-1.07,5.17,5.17,0,0,1-1.07-1.59,4.93,4.93,0,0,1-.39-2,5.05,5.05,0,0,1,.39-2,5.31,5.31,0,0,1,1.07-1.62,4.94,4.94,0,0,1,1.6-1.09,5,5,0,0,1,2-.39,4.73,4.73,0,0,1,1.91.39,4.61,4.61,0,0,1,1.52,1.09,5.32,5.32,0,0,1,1,1.62,5.42,5.42,0,0,1,.36,2A5.29,5.29,0,0,1,116.94,72.14Z"/><path class="cls-2" d="M130.72,74.94a4,4,0,0,1-.73-.11,1.84,1.84,0,0,1-.62-.28,1.24,1.24,0,0,1-.44-.54,2.2,2.2,0,0,1-.16-.9v-7.5h1a1.52,1.52,0,0,0,1.17-.46,1.77,1.77,0,0,0,0-2.34,1.58,1.58,0,0,0-1.17-.44h-1V57.64a1.65,1.65,0,0,0-2.77-1.2,1.57,1.57,0,0,0-.47,1.2V62.4a1.4,1.4,0,0,0-1,.49,1.78,1.78,0,0,0-.35,1.12,1.72,1.72,0,0,0,.35,1.07,1.43,1.43,0,0,0,1,.53v7.53a6.3,6.3,0,0,0,.36,2.24,4,4,0,0,0,1,1.55,4.07,4.07,0,0,0,1.48.89,5.75,5.75,0,0,0,1.83.28,2.14,2.14,0,0,0,1.41-.41,1.34,1.34,0,0,0,.48-1.08,1.83,1.83,0,0,0-.35-1.17A1.39,1.39,0,0,0,130.72,74.94Z"/><path class="cls-2" d="M141.23,74.94a4,4,0,0,1-.73-.11,1.94,1.94,0,0,1-.62-.28,1.31,1.31,0,0,1-.44-.54,2.22,2.22,0,0,1-.15-.9v-7.5h1a1.52,1.52,0,0,0,1.17-.46,1.77,1.77,0,0,0,0-2.34,1.58,1.58,0,0,0-1.17-.44h-1V57.64a1.66,1.66,0,0,0-2.78-1.2,1.56,1.56,0,0,0-.46,1.2V62.4a1.36,1.36,0,0,0-1,.49,1.73,1.73,0,0,0-.36,1.12,1.67,1.67,0,0,0,.36,1.07,1.39,1.39,0,0,0,1,.53v7.53a6.31,6.31,0,0,0,.35,2.24,3.9,3.9,0,0,0,2.47,2.44,5.66,5.66,0,0,0,1.83.28,2.14,2.14,0,0,0,1.41-.41,1.33,1.33,0,0,0,.47-1.08,1.78,1.78,0,0,0-.35-1.17A1.39,1.39,0,0,0,141.23,74.94Z"/><path class="cls-2" d="M159,64.32a8.57,8.57,0,0,0-2.63-1.79,8.23,8.23,0,0,0-6.46,0,8.57,8.57,0,0,0-2.63,1.79,8.3,8.3,0,0,0-1.78,9.09A8.06,8.06,0,0,0,147.24,76a8.49,8.49,0,0,0,2.63,1.76,8.35,8.35,0,0,0,6.46,0A8.49,8.49,0,0,0,159,76a8.38,8.38,0,0,0,1.78-2.62,8.47,8.47,0,0,0,0-6.46A8.54,8.54,0,0,0,159,64.32Zm-1.21,7.82a4.9,4.9,0,0,1-1.09,1.59,5.16,5.16,0,0,1-1.6,1.07,5.08,5.08,0,0,1-3.95,0,5,5,0,0,1-2.66-2.66,4.77,4.77,0,0,1-.4-2,4.89,4.89,0,0,1,.4-2,5.14,5.14,0,0,1,1.07-1.62,4.9,4.9,0,0,1,1.59-1.09,5.06,5.06,0,0,1,7,4.68A4.93,4.93,0,0,1,157.75,72.14Z"/><path class="cls-2" d="M179.1,66.19a6.69,6.69,0,0,0-1.34-2.27,6.31,6.31,0,0,0-2.11-1.51,6.88,6.88,0,0,0-2.77-.54,5.93,5.93,0,0,0-2.39.47,5.35,5.35,0,0,0-1.81,1.3,1.51,1.51,0,0,0-1.63-1.41,1.38,1.38,0,0,0-1,.38,1.33,1.33,0,0,0-.41,1V76.49a1.52,1.52,0,0,0,.46,1.19,1.84,1.84,0,0,0,2.34,0,1.58,1.58,0,0,0,.44-1.19V69a4.41,4.41,0,0,1,.27-1.56,3.51,3.51,0,0,1,.77-1.24,3.83,3.83,0,0,1,1.21-.83,3.78,3.78,0,0,1,1.56-.31,3.56,3.56,0,0,1,1.52.31,3.45,3.45,0,0,1,1.14.84,3.91,3.91,0,0,1,.72,1.26,4.55,4.55,0,0,1,.25,1.53v7.47a1.55,1.55,0,0,0,.45,1.19,1.64,1.64,0,0,0,1.16.42,1.61,1.61,0,0,0,1.17-.42,1.58,1.58,0,0,0,.43-1.19V69A8.44,8.44,0,0,0,179.1,66.19Z"/><path class="cls-3" d="M59.63,13.81s0,6.62,3.52,7.74a77,77,0,0,1,14.13,5.7,11.32,11.32,0,0,1,5.45,6.24c.13.37,2.53-4.56-1.75-9.38S63.94,14.39,59.63,13.81Z"/><path class="cls-4" d="M73.66,9.53C68.53,5.8,57,2.88,57,2.88c-.2,7.37,3.31,8.33,3.31,8.33s5,1.63,13,4.86,10.23,9.44,10.23,9.44C83.36,17.06,79,13.38,73.66,9.53Z"/><path class="cls-5" d="M86,39.61c.14,3.8,4.57,7.19,4.57,7.19C89,43.43,96.39,33.91,96.39,33.91,91.22,34.48,86,39.61,86,39.61Z"/><path class="cls-6" d="M90.81,23.54C84,29.1,86.16,36.26,86.42,35.79a15.47,15.47,0,0,1,8.69-7.21A104.56,104.56,0,0,1,115.38,24c4.92-.75,6.42-9.66,6.42-9.66C115.87,14.17,97.63,18,90.81,23.54Z"/><path class="cls-7" d="M102.73,5.33c-8,4-14.7,8-16.83,19.35,0,0,4.31-7.89,15.82-10.48s18.61-3.7,18.61-3.7S125.27,10,126.61,0C126.61,0,110.45,1.43,102.73,5.33Z"/></g></g></svg>